<svg width="46" height="13" viewBox="0 0 46 13" fill="none" xmlns="http://www.w3.org/2000/svg">
<path d="M5.51641 2.57467C5.91875 1.72706 7.08125 1.72706 7.48359 2.57467L8.17895 4.03955C8.33872 4.37614 8.64755 4.60943 9.00481 4.66341L10.5597 4.89831C11.4593 5.03423 11.8186 6.18374 11.1676 6.84351L10.0425 7.98376C9.78394 8.24576 9.66598 8.62323 9.72701 8.99318L9.99261 10.6032C10.1463 11.5348 9.20581 12.2453 8.40112 11.8054L7.01041 11.0453C6.69087 10.8706 6.30913 10.8706 5.98959 11.0453L4.59888 11.8054C3.7942 12.2453 2.85371 11.5349 3.00739 10.6032L3.27299 8.99318C3.33402 8.62323 3.21606 8.24576 2.95754 7.98376L1.83244 6.84351C1.18143 6.18374 1.54066 5.03423 2.44033 4.89831L3.99519 4.66341C4.35244 4.60943 4.66128 4.37614 4.82105 4.03955L5.51641 2.57467Z" fill="#FFC000"/>
<path d="M16.5164 2.57467C16.9187 1.72706 18.0812 1.72706 18.4836 2.57467L19.1789 4.03955C19.3387 4.37614 19.6476 4.60943 20.0048 4.66341L21.5597 4.89831C22.4593 5.03423 22.8186 6.18374 22.1676 6.84351L21.0425 7.98376C20.7839 8.24576 20.666 8.62323 20.727 8.99318L20.9926 10.6032C21.1463 11.5348 20.2058 12.2453 19.4011 11.8054L18.0104 11.0453C17.6909 10.8706 17.3091 10.8706 16.9896 11.0453L15.5989 11.8054C14.7942 12.2453 13.8537 11.5349 14.0074 10.6032L14.273 8.99318C14.334 8.62323 14.2161 8.24576 13.9575 7.98376L12.8324 6.84351C12.1814 6.18374 12.5407 5.03423 13.4403 4.89831L14.9952 4.66341C15.3524 4.60943 15.6613 4.37614 15.8211 4.03955L16.5164 2.57467Z" fill="#FFC000"/>
<path d="M27.5164 2.57467C27.9187 1.72706 29.0812 1.72706 29.4836 2.57467L30.1789 4.03955C30.3387 4.37614 30.6476 4.60943 31.0048 4.66341L32.5597 4.89831C33.4593 5.03423 33.8186 6.18374 33.1676 6.84351L32.0425 7.98376C31.7839 8.24576 31.666 8.62323 31.727 8.99318L31.9926 10.6032C32.1463 11.5348 31.2058 12.2453 30.4011 11.8054L29.0104 11.0453C28.6909 10.8706 28.3091 10.8706 27.9896 11.0453L26.5989 11.8054C25.7942 12.2453 24.8537 11.5349 25.0074 10.6032L25.273 8.99318C25.334 8.62323 25.2161 8.24576 24.9575 7.98376L23.8324 6.84351C23.1814 6.18374 23.5407 5.03423 24.4403 4.89831L25.9952 4.66341C26.3524 4.60943 26.6613 4.37614 26.8211 4.03955L27.5164 2.57467Z" fill="#FFC000"/>
<path d="M38.5164 2.57467C38.9187 1.72706 40.0812 1.72706 40.4836 2.57467L41.1789 4.03955C41.3387 4.37614 41.6476 4.60943 42.0048 4.66341L43.5597 4.89831C44.4593 5.03423 44.8186 6.18374 44.1676 6.84351L43.0425 7.98376C42.7839 8.24576 42.666 8.62323 42.727 8.99318L42.9926 10.6032C43.1463 11.5348 42.2058 12.2453 41.4011 11.8054L40.0104 11.0453C39.6909 10.8706 39.3091 10.8706 38.9896 11.0453L37.5989 11.8054C36.7942 12.2453 35.8537 11.5349 36.0074 10.6032L36.273 8.99318C36.334 8.62323 36.2161 8.24576 35.9575 7.98376L34.8324 6.84351C34.1814 6.18374 34.5407 5.03423 35.4403 4.89831L36.9952 4.66341C37.3524 4.60943 37.6613 4.37614 37.8211 4.03955L38.5164 2.57467Z" fill="#FFC000"/>
</svg>
