<svg width="120" height="25" viewBox="0 0 120 25" fill="none" xmlns="http://www.w3.org/2000/svg">
<path d="M10.0328 3.71038C10.8375 2.01516 13.1625 2.01516 13.9672 3.71037L15.3579 6.64014C15.6774 7.31331 16.2951 7.7799 17.0096 7.88785L20.1193 8.35766C21.9187 8.6295 22.6371 10.9285 21.3351 12.248L19.0849 14.5286C18.5679 15.0525 18.332 15.8075 18.454 16.5474L18.9852 19.7675C19.2926 21.6307 17.4116 23.0516 15.8022 22.1719L13.0208 20.6516C12.3817 20.3022 11.6183 20.3022 10.9792 20.6516L8.19776 22.1719C6.58839 23.0516 4.70742 21.6307 5.01479 19.7675L5.54599 16.5474C5.66804 15.8075 5.43211 15.0525 4.91508 14.5286L2.66488 12.248C1.36287 10.9285 2.08133 8.6295 3.88066 8.35766L6.99037 7.88785C7.70489 7.7799 8.32257 7.31331 8.64211 6.64014L10.0328 3.71038Z" fill="#FFC000"/>
<path d="M34.0328 3.71038C34.8375 2.01516 37.1625 2.01516 37.9672 3.71037L39.3579 6.64014C39.6774 7.31331 40.2951 7.7799 41.0096 7.88785L44.1193 8.35766C45.9187 8.6295 46.6371 10.9285 45.3351 12.248L43.0849 14.5286C42.5679 15.0525 42.332 15.8075 42.454 16.5474L42.9852 19.7675C43.2926 21.6307 41.4116 23.0516 39.8022 22.1719L37.0208 20.6516C36.3817 20.3022 35.6183 20.3022 34.9792 20.6516L32.1978 22.1719C30.5884 23.0516 28.7074 21.6307 29.0148 19.7675L29.546 16.5474C29.668 15.8075 29.4321 15.0525 28.9151 14.5286L26.6649 12.248C25.3629 10.9285 26.0813 8.6295 27.8807 8.35766L30.9904 7.88785C31.7049 7.7799 32.3226 7.31331 32.6421 6.64014L34.0328 3.71038Z" fill="#FFC000"/>
<path d="M58.0328 3.71038C58.8375 2.01516 61.1625 2.01516 61.9672 3.71037L63.3579 6.64014C63.6774 7.31331 64.2951 7.7799 65.0096 7.88785L68.1193 8.35766C69.9187 8.6295 70.6371 10.9285 69.3351 12.248L67.0849 14.5286C66.5679 15.0525 66.332 15.8075 66.454 16.5474L66.9852 19.7675C67.2926 21.6307 65.4116 23.0516 63.8022 22.1719L61.0208 20.6516C60.3817 20.3022 59.6183 20.3022 58.9792 20.6516L56.1978 22.1719C54.5884 23.0516 52.7074 21.6307 53.0148 19.7675L53.546 16.5474C53.668 15.8075 53.4321 15.0525 52.9151 14.5286L50.6649 12.248C49.3629 10.9285 50.0813 8.6295 51.8807 8.35766L54.9904 7.88785C55.7049 7.7799 56.3226 7.31331 56.6421 6.64014L58.0328 3.71038Z" fill="#FFC000"/>
<path d="M82.0328 3.71038C82.8375 2.01516 85.1625 2.01516 85.9672 3.71037L87.3579 6.64014C87.6774 7.31331 88.2951 7.7799 89.0096 7.88785L92.1193 8.35766C93.9187 8.6295 94.6371 10.9285 93.3351 12.248L91.0849 14.5286C90.5679 15.0525 90.332 15.8075 90.454 16.5474L90.9852 19.7675C91.2926 21.6307 89.4116 23.0516 87.8022 22.1719L85.0208 20.6516C84.3817 20.3022 83.6183 20.3022 82.9792 20.6516L80.1978 22.1719C78.5884 23.0516 76.7074 21.6307 77.0148 19.7675L77.546 16.5474C77.668 15.8075 77.4321 15.0525 76.9151 14.5286L74.6649 12.248C73.3629 10.9285 74.0813 8.6295 75.8807 8.35766L78.9904 7.88785C79.7049 7.7799 80.3226 7.31331 80.6421 6.64014L82.0328 3.71038Z" fill="#FFC000"/>
<path d="M106.033 3.71038C106.837 2.01516 109.162 2.01516 109.967 3.71037L111.358 6.64014C111.677 7.31331 112.295 7.7799 113.01 7.88785L116.119 8.35766C117.919 8.6295 118.637 10.9285 117.335 12.248L115.085 14.5286C114.568 15.0525 114.332 15.8075 114.454 16.5474L114.985 19.7675C115.293 21.6307 113.412 23.0516 111.802 22.1719L109.021 20.6516C108.382 20.3022 107.618 20.3022 106.979 20.6516L104.198 22.1719C102.588 23.0516 100.707 21.6307 101.015 19.7675L101.546 16.5474C101.668 15.8075 101.432 15.0525 100.915 14.5286L98.6649 12.248C97.3629 10.9285 98.0813 8.6295 99.8807 8.35766L102.99 7.88785C103.705 7.7799 104.323 7.31331 104.642 6.64014L106.033 3.71038Z" fill="#FFC000"/>
</svg>
